<svg viewBox="0 0 4267 4267" xmlns="http://www.w3.org/2000/svg" xml:space="preserve" fill-rule="evenodd" clip-rule="evenodd" stroke-linejoin="round" stroke-miterlimit="2"><path d="M1229 55c-176-28-184 174-231 286-24 55-62 102-104 145-119 120-291 165-419 275-272 235-391 642-398 991-17 908 423 1725 1196 2152 296 164 744 307 1085 318 270 8 599-67 826-222 120-81 195-261 97-388-60-78-145-94-230-130-176-77-359-140-528-233-495-273-918-663-1149-1188-136-309-170-628-172-961-1-115-24-244 12-354 25-77 68-149 126-204 70-66 153-109 165-215 14-134-156-253-276-272" fill="#050505" fill-rule="nonzero"/><path d="M3290 67c-27 352-88 780-417 978-146 88-320 111-484 143 58 82 171 76 264 97 113 27 218 77 307 152 284 240 255 574 352 894 91-151 73-380 134-550a766 766 0 0 1 460-482c107-41 222-53 330-89-145-88-332-85-484-173-330-193-415-614-418-970h-44" fill="#060707" fill-rule="nonzero"/></svg>