<?xml version="1.0" encoding="UTF-8" standalone="no"?><!DOCTYPE svg PUBLIC "-//W3C//DTD SVG 1.1//EN" "http://www.w3.org/Graphics/SVG/1.1/DTD/svg11.dtd"><svg width="100%" height="100%" viewBox="0 0 17780 17780" version="1.1" xmlns="http://www.w3.org/2000/svg" xmlns:xlink="http://www.w3.org/1999/xlink" xml:space="preserve" xmlns:serif="http://www.serif.com/" style="fill-rule:evenodd;clip-rule:evenodd;stroke-linejoin:round;stroke-miterlimit:2;"><path d="M3378.76,2054.61l-17.11,18.87c-121.508,119.292 -289.454,169.466 -438.499,250.609c-308.694,168.059 -607.579,351.941 -875.137,581.873l-1.75,1.504c-1286.25,1111.28 -1923.6,3002.32 -1956.66,4650.45l-0.024,1.168c-70.13,3745.8 1770.37,7100.68 4958.22,8861.68c1217.82,674.463 3065.03,1250.18 4468.36,1295.45l2.297,0.074c1258.16,37.279 2781.93,-334.356 3838.6,-1054.71c1167.56,-791.647 1685.61,-2592.06 731.174,-3830.49c-402.348,-522.532 -905.484,-739.342 -1474.61,-980.413c-545.062,-237.757 -1114.01,-427.331 -1637.27,-715.176c-1342.2,-740.393 -2511.65,-1776.06 -3138.04,-3199.67l-0.038,-0.087c-362.271,-823.101 -429.604,-1676.8 -434.931,-2563.74l-0.014,-2.354c-1.595,-183.326 -16.783,-522.252 -23.505,-661.378c531.975,-505.479 950.768,-963.949 1039.71,-1749.62l0.849,-7.502c69.45,-664.731 -150.237,-1318.61 -619.906,-1850.27c-464.433,-525.736 -1198.46,-896.986 -1780.62,-989.484l0.002,-0.034l-1.277,-0.202l-0.001,0.019c-1078.01,-171.092 -1728.34,261.363 -2186.14,903.461c-205.562,288.314 -325.633,714.238 -453.682,1039.97Zm2366.15,-214.985c-596.698,-94.929 -623.82,589.917 -783.166,969.634c-81.367,186.468 -210.2,345.813 -352.594,491.597c-403.449,406.839 -986.585,559.404 -1420.55,932.34c-922.169,796.727 -1325.62,2176.59 -1349.35,3359.81c-57.636,3078.42 1434.11,5848.32 4054.83,7295.99c1003.54,556.013 2522.4,1040.83 3678.51,1078.12c915.388,27.123 2030.81,-227.152 2800.41,-752.653c406.839,-274.616 661.114,-884.875 328.862,-1315.45c-203.42,-264.445 -491.598,-318.691 -779.776,-440.742c-596.697,-261.056 -1217.13,-474.646 -1790.09,-789.947c-1678.21,-925.559 -3112.32,-2247.79 -3895.49,-4027.71c-461.084,-1047.61 -576.355,-2129.13 -583.136,-3258.11c-3.39,-389.888 -81.368,-827.24 40.684,-1200.18c84.758,-261.055 230.542,-505.159 427.181,-691.627c237.323,-223.761 518.72,-369.545 559.404,-728.92c47.465,-454.304 -528.891,-857.753 -935.73,-922.169Zm1581.92,2919.59c8.996,-8.283 19.578,-15.984 26.108,-25.098l-26.108,25.098Z"/><path d="M13616.1,279.167c-115.133,1501 -375.25,3326.08 -1778.17,4170.4c-622.575,375.25 -1364.55,473.327 -2063.88,609.782c247.324,349.665 729.18,324.08 1125.75,413.628c481.855,115.133 929.597,328.344 1309.11,648.159c1211.04,1023.41 1087.37,2447.66 1501,3812.2c388.043,-643.895 311.287,-1620.4 571.404,-2345.31c305.835,-947.858 1028.99,-1705.6 1961.54,-2055.35c456.271,-174.833 946.655,-226.003 1407.19,-379.515c-618.31,-375.25 -1415.72,-362.457 -2063.88,-737.708c-1407.19,-822.992 -1769.65,-2618.22 -1782.44,-4136.28l-187.625,-0" style="fill:#060707;fill-rule:nonzero;"/></svg>